<svg width="22" height="23" viewBox="0 0 22 23" fill="none" xmlns="http://www.w3.org/2000/svg">
<path fill-rule="evenodd" clip-rule="evenodd" d="M14.6631 2.77972C11.0223 1.15749 6.74818 2.12317 4.15851 5.15308C1.56884 8.18298 1.28053 12.5554 3.44992 15.8991C5.61932 19.2428 9.72964 20.7613 13.5519 19.6312C17.3741 18.5011 19.9978 14.9915 20.0001 11.0057V10.0863C20.0001 9.53401 20.4478 9.08629 21.0001 9.08629C21.5524 9.08629 22.0001 9.53401 22.0001 10.0863V11.0063C21.9973 15.8778 18.7906 20.1679 14.119 21.5492C9.44732 22.9304 4.4236 21.0744 1.77211 16.9876C-0.879372 12.9009 -0.526986 7.55686 2.63816 3.85364C5.80332 0.150412 11.0272 -1.02987 15.4771 0.952862C15.9815 1.17764 16.2083 1.76882 15.9835 2.27329C15.7587 2.77776 15.1675 3.0045 14.6631 2.77972Z" fill="#26A769"/>
<path fill-rule="evenodd" clip-rule="evenodd" d="M21.7068 2.29859C22.0975 2.68892 22.0978 3.32209 21.7075 3.71281L11.7075 13.7228C11.52 13.9105 11.2656 14.016 11.0003 14.0161C10.735 14.0161 10.4805 13.9108 10.2929 13.7232L7.2929 10.7232C6.90237 10.3326 6.90237 9.69947 7.2929 9.30895C7.68342 8.91842 8.31659 8.91842 8.70711 9.30895L10.9997 11.6015L20.2925 2.2993C20.6829 1.90858 21.316 1.90826 21.7068 2.29859Z" fill="#26A769"/>
</svg>
